<svg version="1.2" xmlns="http://www.w3.org/2000/svg" viewBox="0 0 1300 512" width="1300" height="512">
    <defs>
        <linearGradient id="P" gradientUnits="userSpaceOnUse"/>
        <linearGradient id="g1" x2="1" href="#P" gradientTransform="matrix(0,-436.169,506.43,0,255.906,474.145)">
            <stop stop-color="#282828"/>
            <stop offset="1" stop-color="#595959"/>
        </linearGradient>
    </defs>
    <style>.a{fill:url(#g1)}.b{fill:#fefefe}.c{fill:#000} @media (prefers-color-scheme: dark) {.c{fill:#fff}}</style>
    <path fill-rule="evenodd" class="a" d="m2.7 256.1l63.3-109.1 63.3-109h126.6 126.6l63.3 109 63.3 109.1-63.3 109-63.3 109h-126.6-126.6l-63.3-109z"/>
    <path class="b" d="m215.5 383c-22.9 0-39.2-4-48.9-12q-14.6-12.1-15.2-39.9-0.4-17.5-0.6-36.8-0.2-19.2-0.2-39.1 0-19.9 0.2-39.2c0.1-12.8 0.3-25.2 0.6-37q0.3-24.4 15.4-37.9 15.1-13.5 48.5-13.5 33.2 0 48.1 11.9 14.9 12 16 39.8c0.2 3.7 0.2 8.1 0.2 13.1q0 7.6-0.2 15c-0.1 5-0.2 9.3-0.3 13.1h-40.8c0.1-4.6 0.2-9.7 0.3-15.2 0-5.5 0.1-11 0.1-16.7 0-5.5-0.1-10.6-0.2-15.2-0.1-6.2-2.1-10.7-5.9-13.6-3.8-2.9-9.6-4.4-17.3-4.4q-11.5 0-17.2 4.4-5.6 4.4-6 13.6c-0.5 13.2-0.9 26.7-1 40.4-0.2 13.7-0.3 27.5-0.3 41.4 0 13.9 0.1 27.7 0.3 41.5 0.1 13.7 0.5 27.2 1 40.3 0.3 6.2 2.3 10.7 6.2 13.7 3.8 3 9.5 4.5 17.2 4.5 8.2 0 14.3-1.5 18.3-4.5q6-4.5 6.2-13.7c0.1-4.7 0.2-9.9 0.3-15.7 0-5.8 0-11.5-0.1-17.3q-0.2-8.6-0.4-15.6h41c0.2 6.9 0.4 14 0.5 21.3 0 7.4-0.1 14.5-0.4 21.4-0.7 18.5-6.1 31.8-16.2 39.9-10.2 8-26.6 12-49.2 12z"/>
    <path class="b" d="m330.7 346.7q-3 0-7.2-0.4-4.3-0.3-7.2-0.7v-10.4c1.8 0.2 4 0.4 6.7 0.6q4 0.2 7.5 0.2 8.4 0 11.4-2.8 3-2.8 4.1-9.9l2.5-17.2h-13.2l-18-119.4h15.5l6.5 58.2 6.8 50.8h6.1l6.8-50.8 6.6-58.2h15.6l-20 135.8q-1.4 8.5-4.5 13.9-3.2 5.4-9.5 7.8c-4.2 1.6-9.7 2.4-16.5 2.4z"/>
    <path class="c" d="m676.5 333q-21.1 0-36.7-11.1-15.5-11.1-24-31.5-8.3-20.4-8.3-48.4v-4.7q0-28.4 8.2-48.7 8.3-20.5 23.5-31.3 15.3-11 36.6-11 20.7 0 35.3 11.2 14.7 11.2 21.7 32.7l-21.5 8.3q-5.3-15.9-14-23-8.6-7.3-22-7.3-21.1 0-32.6 17.8-11.5 17.7-11.5 50.6v6q0 32.7 11.9 50.6 11.9 17.8 33.8 17.8 27.1 0 36.7-30.1l21.6 8q-6.9 21.5-22 32.9-15 11.2-36.7 11.2zm108.2 51.2q-18.2 0-31.8-11.4l11.4-17.6q9.9 8 19.6 8 7.9 0 12.8-3.9 5-4 8.2-13l11.7-32.3h3.4l11.5-38.9 27.3-76.8h24.1l-58 153.7q-6.5 16.9-16 24.6-9.5 7.6-24.2 7.6zm40.9-79.7l-10.6 36.4-54.5-142.6h24.3l28 76.8 9.1 29.4zm167.5 28.5q-22.8 0-35.5-12.6-12.6-12.7-12.6-35.3v-121.6h22.8v119.8q0 14.6 6.2 21.6 6.2 6.9 19.1 6.9 13.4 0 24.4-11l12.7 17q-15.2 15.2-37.1 15.2zm29.3-115.2h-113v-19.5h113zm67.2 111.2h-22.6v-182.2h22.6v69.3h0.9q15.5-21.7 41.7-21.7 19.7 0 30.9 12.9 11.3 13 11.3 35.9v85.8h-22.6v-82.3q0-32.2-27.6-32.2-15.6 0-25.1 10.7-9.5 10.6-9.5 28.2z"/>
</svg>